<svg xmlns="http://www.w3.org/2000/svg" width="90" height="90" viewBox="0 0 90 90" fill="none"><path d="M45.5262 18.9477H0.128695C0.107351 19.0598 0.0966797 19.1772 0.0966797 19.2946C0.0966797 21.1888 6.37699 25.9324 11.4514 29.8916C15.9282 33.3919 22.2619 37.73 45.5262 37.874C45.9157 37.874 46.2892 37.8794 46.6841 37.8794C70.9143 37.8794 76.3782 31.455 80.951 27.7999C81.1805 27.6185 81.4099 27.4371 81.6447 27.245C81.8528 27.0796 82.0662 26.9088 82.2796 26.7381C82.2957 26.7221 82.3223 26.7061 82.333 26.6901C82.5464 26.5193 82.7599 26.3486 82.9733 26.1778C83 26.1565 83.0267 26.1298 83.0587 26.1084C83.2721 25.9377 83.4855 25.7616 83.6936 25.5909C83.7203 25.5695 83.747 25.5482 83.7737 25.5268C83.9871 25.3508 84.2006 25.1747 84.4087 24.9986C84.43 24.9772 84.4567 24.9612 84.4834 24.9346C84.6968 24.7585 84.9049 24.5824 85.113 24.401C85.1343 24.3796 85.161 24.3583 85.1824 24.3369C85.3905 24.1609 85.5932 23.9794 85.796 23.8034C85.8173 23.782 85.844 23.7607 85.8653 23.7447C86.0681 23.5632 86.2602 23.3872 86.4523 23.2111C86.4683 23.1951 86.495 23.1737 86.5163 23.1577C86.7084 22.9763 86.8952 22.8002 87.0766 22.6241C87.0926 22.6028 87.1086 22.5868 87.1299 22.5708C87.3114 22.3947 87.4821 22.2186 87.6475 22.0425C87.6635 22.0265 87.6849 22.0105 87.6955 21.9945C87.861 21.8184 88.021 21.6477 88.1758 21.4769C88.1864 21.4609 88.2025 21.4502 88.2131 21.4342C88.3679 21.2581 88.5119 21.0927 88.64 20.9273C88.6507 20.9167 88.656 20.9006 88.6667 20.89C88.8001 20.7246 88.9228 20.5538 89.0402 20.3937C89.0402 20.3831 89.0509 20.3777 89.0562 20.3671C89.1682 20.2016 89.2696 20.0416 89.3603 19.8868C89.3603 19.8815 89.3657 19.8762 89.371 19.8708C89.4564 19.7107 89.5418 19.556 89.6005 19.4066V19.4013C89.6645 19.2465 89.7178 19.1025 89.7445 18.9584H45.5102L45.5262 18.9477Z" fill="#ECE6F2"></path><path d="M80.3747 9.51391C80.1026 9.27914 79.8305 9.04969 79.553 8.82559C79.4463 8.74021 79.3396 8.66018 79.2382 8.58014C79.0675 8.44141 78.8967 8.30801 78.7206 8.17461C78.5819 8.0679 78.4432 7.96651 78.3044 7.86513C78.1657 7.75842 78.027 7.65703 77.8829 7.55032C77.7228 7.43293 77.5574 7.32088 77.3973 7.20349C77.2799 7.11811 77.1572 7.03274 77.0452 6.9527C76.8691 6.82998 76.6877 6.71792 76.5116 6.60053C76.4049 6.53117 76.2928 6.45646 76.1861 6.3871C75.994 6.26437 75.8019 6.14699 75.6045 6.02426C75.5084 5.96557 75.4177 5.90687 75.3163 5.84818C75.1136 5.72545 74.9108 5.60806 74.7027 5.49067C74.612 5.44265 74.5266 5.38929 74.4413 5.33593C74.2278 5.21854 74.0037 5.10116 73.7903 4.98377C73.7103 4.94108 73.6302 4.89839 73.5502 4.85571C73.3261 4.73298 73.0913 4.62093 72.8618 4.50354C72.7871 4.47152 72.7231 4.42884 72.6484 4.39149C72.4136 4.27943 72.1735 4.16738 71.9334 4.05533C71.864 4.02331 71.7947 3.9913 71.7306 3.95928C71.4852 3.84723 71.2344 3.74051 70.9836 3.63379C70.9249 3.60711 70.8609 3.58043 70.8022 3.55376C70.5461 3.4417 70.2846 3.34032 70.0232 3.23894C69.9645 3.2176 69.9058 3.19625 69.8471 3.16957C69.5803 3.06819 69.3082 2.96681 69.036 2.87076C68.9827 2.85476 68.9293 2.82808 68.876 2.81207C68.5985 2.71602 68.3157 2.61998 68.0275 2.52927C67.9795 2.51326 67.9315 2.49725 67.8835 2.48125C67.59 2.39054 67.3019 2.29983 67.0031 2.20912C66.9604 2.19845 66.9124 2.18244 66.8697 2.17177C66.5709 2.08106 66.2614 1.99568 65.9626 1.91565C65.9146 1.90497 65.8772 1.8943 65.8345 1.88363C65.5304 1.80359 65.2156 1.72355 64.9007 1.64885C64.858 1.63818 64.8207 1.62217 64.7833 1.61684C64.4632 1.54213 64.1377 1.46743 63.8122 1.39807C63.7749 1.39273 63.7429 1.38206 63.7055 1.37672C63.3747 1.30736 63.0385 1.23799 62.7024 1.17396C62.665 1.17396 62.633 1.16329 62.601 1.15262C62.2648 1.08859 61.918 1.02989 61.5712 0.971198C61.5338 0.965862 61.5071 0.960526 61.4698 0.95519C61.1176 0.896495 60.7601 0.843137 60.4026 0.789778C60.3759 0.784442 60.3439 0.779107 60.3172 0.773771C59.9544 0.720412 59.5809 0.672389 59.2074 0.624367C59.186 0.624367 59.1594 0.619031 59.1327 0.613695C58.7592 0.565672 58.375 0.517649 57.9908 0.480298C57.9641 0.480298 57.9428 0.474962 57.9214 0.474962C57.5319 0.432275 57.1371 0.394924 56.7369 0.357573C56.7155 0.357573 56.6942 0.357573 56.6782 0.357573C56.278 0.320222 55.8671 0.288207 55.4563 0.261528C55.4403 0.261528 55.4243 0.261528 55.4082 0.261528C54.992 0.229513 54.5758 0.202833 54.149 0.176154C54.133 0.176154 54.117 0.176154 54.101 0.176154C53.6741 0.154811 53.2365 0.133467 52.799 0.112124C52.7883 0.112124 52.7723 0.112124 52.7617 0.112124C52.3188 0.0907801 51.8706 0.0801084 51.4117 0.0641008H51.3903C50.9314 0.0480932 50.4672 0.0374215 49.9977 0.0267498H49.987C49.5174 0.0214139 49.0372 0.0160781 48.5517 0.0107422H48.541C48.0554 0.0107422 47.5592 0.0107422 47.063 0.0107422H47.0523C46.4173 0.0107422 45.7717 0.0214139 45.11 0.0320856C28.2647 0.320222 19.3378 1.3287 13.0041 6.94203C5.28848 13.7559 0.555564 16.5893 0.128695 18.9477H89.7605C89.7765 18.8784 89.7872 18.8037 89.8032 18.7396C89.8139 18.6703 89.8139 18.6009 89.8139 18.5369C89.8139 16.5733 85.177 13.6172 80.3694 9.51925L80.3747 9.51391Z" fill="white"></path><path d="M87.8556 50.4773C87.8556 50.4773 88.656 49.4902 89.2483 47.8894H16.5952C12.0917 47.8894 8.53268 47.6653 8.53268 50.5467C8.53268 50.552 8.53268 50.5627 8.53268 50.568H8.53801C8.53801 50.568 8.53801 50.6161 8.53801 50.6374C8.53801 50.6587 8.53801 50.6801 8.53801 50.7068H8.53268C8.53268 50.7068 8.53268 50.7228 8.53268 50.7281C8.53268 53.6095 12.0917 53.3854 16.5952 53.3854H89.3016C89.4137 53.5455 89.5151 53.7696 89.5951 54.0257C89.0455 51.6726 87.8503 50.472 87.8503 50.472L87.8556 50.4773Z" fill="#E1ADFD"></path><path d="M89.3016 53.3907H16.5952C12.0917 53.3907 8.53268 53.6148 8.53268 50.7335C8.53268 50.7281 8.53268 50.7174 8.53268 50.7121H8.53802C8.53802 50.7121 8.53802 50.6641 8.53802 50.6427C8.53802 50.6214 8.53802 50.5947 8.53802 50.5734H8.53268C8.53268 50.5734 8.53268 50.5574 8.53268 50.552C8.53268 47.6707 12.0917 47.8948 16.5952 47.8948H89.3016C89.9579 46.961 90.1767 44.1703 89.4457 42.2014C87.9623 38.1835 83.0053 37.4472 79.5157 37.4472H19.0443C12.9081 37.4472 0.539556 37.2764 0.539556 49.7837C0.539556 50.0771 0.544892 50.3599 0.5609 50.6427C0.544892 50.9255 0.539556 51.2083 0.539556 51.5018C0.539556 64.0091 12.9134 63.8383 19.0443 63.8383H79.5157C83.0053 63.8383 87.9623 63.102 89.4457 59.0894C90.0487 57.462 90.0006 55.2743 89.6005 54.0364C89.5151 53.7802 89.419 53.5561 89.307 53.396L89.3016 53.3907Z" fill="#E8C1FE"></path><path d="M87.8556 76.6337C87.8556 76.6337 88.656 75.6466 89.2483 74.0458H16.5952C12.0917 74.0458 8.53268 73.8217 8.53268 76.7031C8.53268 76.7138 8.53268 76.7191 8.53268 76.7244H8.53801C8.53801 76.7244 8.53801 76.7725 8.53801 76.7938C8.53801 76.8205 8.53801 76.8418 8.53801 76.8632H8.53268C8.53268 76.8632 8.53268 76.8792 8.53268 76.8898C8.53268 79.7712 12.0917 79.5471 16.5952 79.5471H89.3016C89.4137 79.7072 89.5151 79.9313 89.5951 80.1874C89.0455 77.8343 87.8503 76.6337 87.8503 76.6337H87.8556Z" fill="#FFBF35"></path><path d="M89.3016 79.5418H16.5952C12.0917 79.5418 8.53268 79.7659 8.53268 76.8845C8.53268 76.8738 8.53268 76.8685 8.53268 76.8578H8.53802C8.53802 76.8578 8.53802 76.8151 8.53802 76.7885C8.53802 76.7671 8.53802 76.7404 8.53802 76.7191H8.53268C8.53268 76.7191 8.53268 76.7084 8.53268 76.6978C8.53268 73.8164 12.0917 74.0405 16.5952 74.0405H89.3016C89.9579 73.1067 90.1767 70.3161 89.4457 68.3471C87.9623 64.3346 83.0053 63.5982 79.5157 63.5982H19.0443C12.9081 63.5982 0.539556 63.4275 0.539556 75.9401C0.539556 76.2282 0.544892 76.511 0.5609 76.7938C0.544892 77.0766 0.539556 77.3594 0.539556 77.6475C0.539556 90.1601 12.9134 89.9894 19.0443 89.9894H79.5157C83.0053 89.9894 87.9623 89.2531 89.4457 85.2405C90.0487 83.6131 90.0006 81.4253 89.6005 80.1874C89.5151 79.9313 89.419 79.7072 89.307 79.5471L89.3016 79.5418Z" fill="#FFD986"></path></svg>