<svg xmlns="http://www.w3.org/2000/svg" width="60" height="108" viewBox="0 0 60 108" fill="none"><path d="M46.3277 8.109C48.3892 8.109 48.6525 8.109 48.6525 6.68975V2.56046C48.6525 1.39809 48.0039 0.499023 46.4562 0.499023H35.2371C33.6894 0.499023 33.0472 1.39809 33.0472 2.56046V6.68975C33.0472 8.109 33.3041 8.109 35.3719 8.109H46.3342H46.3277Z" fill="#4E88E8"></path><path d="M57.8037 80.2271C57.8037 80.2271 58.5807 79.4501 59.0945 78.8079C59.6083 78.1657 59.8716 77.652 59.8716 73.3878V33.527C59.8716 24.883 54.0661 17.5299 51.2277 15.0768C49.5258 13.6062 48.6653 12.5144 48.2415 11.8658H33.1885C32.7711 12.508 31.9105 13.5997 30.2023 15.0768C27.3638 17.5299 21.5584 24.883 21.5584 33.527V45.0864C23.9024 47.1864 28.0831 52.6386 28.0831 59.2467C28.0831 62.6247 28.1152 79.0584 28.1344 92.2297C28.1473 98.7608 28.1537 104.489 28.1601 107.43C32.2059 107.302 33.8243 104.476 34.3316 104.476C34.8389 104.476 37.1701 107.443 40.6572 107.443H40.7792C44.2599 107.443 46.5846 104.476 47.1048 104.476C47.625 104.476 49.2947 107.443 53.5524 107.443C55.4854 107.443 60 106.673 60 102.8V86.5463C60 81.2611 57.8037 80.2271 57.8037 80.2271Z" fill="white"></path><path d="M16.2539 42.6525C17.6025 42.6525 17.7695 42.6525 17.7695 41.7277V39.0305C17.7695 38.2727 17.3456 37.6819 16.3374 37.6819H9.01638C8.00171 37.6819 7.58429 38.2727 7.58429 39.0305V41.7277C7.58429 42.6525 7.75126 42.6525 9.09986 42.6525H16.2603H16.2539Z" fill="#4E88E8"></path><path d="M23.7483 89.738C23.7483 89.738 24.2556 89.2307 24.5895 88.8068C24.9299 88.383 25.0969 88.049 25.0969 85.2683V59.2467C25.0969 53.6019 21.3079 48.7983 19.452 47.1992C18.341 46.2359 17.7823 45.5231 17.5061 45.1057H7.67419C7.39805 45.5295 6.83934 46.2423 5.72835 47.1992C3.87242 48.7983 0.0834849 53.6019 0.0834849 59.2467V85.2683C0.0834849 88.049 0.250455 88.383 0.590816 88.8068C0.924756 89.2242 1.43209 89.738 1.43209 89.738C1.43209 89.738 0 90.4123 0 93.8609V104.47C0 107 2.94766 107.501 4.21278 107.501C6.99347 107.501 8.08519 105.568 8.42556 105.568C8.76592 105.568 10.2815 107.501 12.5548 107.501H12.6319C14.9053 107.501 16.4208 105.568 16.7612 105.568C17.1016 105.568 18.1933 107.501 20.974 107.501C22.2391 107.501 25.1868 107 25.1868 104.47V93.8609C25.1868 90.4059 23.7547 89.738 23.7547 89.738H23.7483Z" fill="white"></path><path d="M0.0834849 59.2467L0.0834849 84.5105H25.1033V59.2467L0.0834849 59.2467ZM21.2694 81.3702C21.2694 81.9353 20.8134 82.3849 20.2547 82.3849C19.696 82.3849 19.2401 81.9353 19.2401 81.3702V63.132C19.2401 62.5733 19.696 62.1173 20.2547 62.1173C20.8134 62.1173 21.2694 62.5733 21.2694 63.132V81.3702Z" fill="#4E88E8"></path><path d="M21.5584 33.5205V45.08C23.9024 47.18 28.0831 52.6322 28.0831 59.2403C28.0831 60.9421 28.0895 65.9705 28.1023 72.219H59.878V33.5205H21.5584ZM53.8928 67.3769C53.8928 68.231 53.1992 68.9246 52.3451 68.9246C51.491 68.9246 50.7974 68.231 50.7974 67.3769V39.4801C50.7974 38.626 51.491 37.9324 52.3451 37.9324C53.1992 37.9324 53.8928 38.626 53.8928 39.4801V67.3769Z" fill="#4E88E8"></path></svg>