<svg xmlns="http://www.w3.org/2000/svg" width="91" height="92" fill="none" viewBox="0 0 91 92"><mask id="path-1-outside-1_44027_181165" width="92" height="92" x="-0.75" y="0" fill="#000" maskUnits="userSpaceOnUse"><path fill="#fff" d="M-0.75 0H91.25V92H-0.75z"></path><path d="M10.25 71h7.5a2.5 2.5 0 002.5-2.5V41a2.5 2.5 0 00-2.5-2.5h-2.5V36a30 30 0 1160 0v2.5h-2.5a2.5 2.5 0 00-2.5 2.5v27.5a2.5 2.5 0 002.5 2.5h2.275A15 15 0 0160.25 83.5h-5a6.25 6.25 0 00-6.125-5h-7.5a6.25 6.25 0 000 12.5h7.5a6.275 6.275 0 005-2.5h6.125A20 20 0 0080.075 71h.175a10 10 0 0010-10V48.5a10 10 0 00-10-10V36a35 35 0 10-70 0v2.5a10 10 0 00-10 10V61a10 10 0 0010 10zM49 86h-7.5a1.25 1.25 0 010-2.5H49a1.25 1.25 0 010 2.5zm36.25-37.5V61a5 5 0 01-5 5h-5V43.5h5a5 5 0 015 5zm-80 0a5 5 0 015-5h5V66h-5a5 5 0 01-5-5V48.5z"></path><path d="M45.248 69a14.85 14.85 0 0012.025-6.025 2.506 2.506 0 00-4.05-2.95 9.999 9.999 0 01-15.95 0 2.505 2.505 0 10-4.05 2.95A14.85 14.85 0 0045.248 69z"></path></mask><path fill="#4E4B66" d="M10.25 71h7.5a2.5 2.5 0 002.5-2.5V41a2.5 2.5 0 00-2.5-2.5h-2.5V36a30 30 0 1160 0v2.5h-2.5a2.5 2.5 0 00-2.5 2.5v27.5a2.5 2.5 0 002.5 2.5h2.275A15 15 0 0160.25 83.5h-5a6.25 6.25 0 00-6.125-5h-7.5a6.25 6.25 0 000 12.5h7.5a6.275 6.275 0 005-2.5h6.125A20 20 0 0080.075 71h.175a10 10 0 0010-10V48.5a10 10 0 00-10-10V36a35 35 0 10-70 0v2.5a10 10 0 00-10 10V61a10 10 0 0010 10zM49 86h-7.5a1.25 1.25 0 010-2.5H49a1.25 1.25 0 010 2.5zm36.25-37.5V61a5 5 0 01-5 5h-5V43.5h5a5 5 0 015 5zm-80 0a5 5 0 015-5h5V66h-5a5 5 0 01-5-5V48.5z"></path><path fill="#4E4B66" d="M45.248 69a14.85 14.85 0 0012.025-6.025 2.506 2.506 0 00-4.05-2.95 9.999 9.999 0 01-15.95 0 2.505 2.505 0 10-4.05 2.95A14.85 14.85 0 0045.248 69z"></path><path stroke="#4E4B66" stroke-width="0.4" d="M10.25 71h7.5a2.5 2.5 0 002.5-2.5V41a2.5 2.5 0 00-2.5-2.5h-2.5V36a30 30 0 1160 0v2.5h-2.5a2.5 2.5 0 00-2.5 2.5v27.5a2.5 2.5 0 002.5 2.5h2.275A15 15 0 0160.25 83.5h-5a6.25 6.25 0 00-6.125-5h-7.5a6.25 6.25 0 000 12.5h7.5a6.275 6.275 0 005-2.5h6.125A20 20 0 0080.075 71h.175a10 10 0 0010-10V48.5a10 10 0 00-10-10V36a35 35 0 10-70 0v2.5a10 10 0 00-10 10V61a10 10 0 0010 10zM49 86h-7.5a1.25 1.25 0 010-2.5H49a1.25 1.25 0 010 2.5zm36.25-37.5V61a5 5 0 01-5 5h-5V43.5h5a5 5 0 015 5zm-80 0a5 5 0 015-5h5V66h-5a5 5 0 01-5-5V48.5z" mask="url(#path-1-outside-1_44027_181165)"></path><path stroke="#4E4B66" stroke-width="0.4" d="M45.248 69a14.85 14.85 0 0012.025-6.025 2.506 2.506 0 00-4.05-2.95 9.999 9.999 0 01-15.95 0 2.505 2.505 0 10-4.05 2.95A14.85 14.85 0 0045.248 69z" mask="url(#path-1-outside-1_44027_181165)"></path></svg>