<svg xmlns="http://www.w3.org/2000/svg" width="111" height="64" viewBox="0 0 111 64" fill="none"><path fill-rule="evenodd" clip-rule="evenodd" d="M51.7597 32.7291H99.4545C100.058 32.7291 100.554 32.2393 100.554 31.6299V12.0622C100.554 11.4528 100.042 10.9576 99.4327 10.9685C74.0427 11.3276 62.8495 15.8332 50.9054 30.9823C50.3449 31.6952 50.8564 32.7291 51.7597 32.7291ZM5.86062 46.5178H109.646C110.256 46.5178 110.746 46.0281 110.746 45.4187V1.8975C110.751 1.28805 110.234 0.798314 109.625 0.803756C54.3771 1.45129 30.848 11.1589 5.0063 44.7548C4.45127 45.4731 4.95733 46.5178 5.86606 46.5178H5.86062Z" fill="white"></path><path fill-rule="evenodd" clip-rule="evenodd" d="M5.65928 49.4236H108.863C109.902 49.4236 110.751 50.3378 110.751 51.4696V61.1555C110.751 62.2819 109.908 63.196 108.863 63.196H2.63381C1.34417 63.196 0.435438 61.8248 0.848993 60.4971L3.86903 50.8166C4.13022 49.9895 4.8485 49.429 5.65384 49.429L5.65928 49.4236Z" fill="#A7EDE7"></path></svg>