<svg xmlns="http://www.w3.org/2000/svg" width="83" height="99" viewBox="0 0 83 99" fill="none"><g clip-path="url(#clip0_43956_103992)"><path d="M79.583 50.8945C79.5599 50.5103 79.5292 50.1185 79.4831 49.7421C79.0759 45.6933 77.6469 41.9749 75.7186 38.6714C72.8991 33.7468 69.5878 30.6968 69.5878 30.6968C69.5878 30.6968 69.5878 30.6968 69.5878 30.7044C64.3483 25.2728 59.0165 22.1306 59.0165 22.1306L59.4621 20.4635L64.0486 3.23894C64.0486 3.23894 64.0486 3.2543 64.0333 3.27735L64.5557 1.31059C62.7503 0.895725 61.0447 0.695976 59.4314 0.657563C54.2532 0.30416 46.0405 0.757437 40.2247 5.93555C34.3398 0.688293 25.981 0.296478 20.8183 0.672928C19.5276 0.726707 18.1755 0.895725 16.7619 1.18767C16.3624 1.26449 16.1472 1.31059 16.1472 1.31059L21.6864 22.1383C21.6864 22.1383 1.99578 33.7007 1.11995 50.8945C0.24413 68.0806 -0.186099 77.2306 1.11995 85.8736C1.32739 87.2488 1.92663 88.9851 2.8716 90.729C3.00989 90.9903 3.16354 91.2515 3.31719 91.5127C3.37866 91.6125 3.44012 91.7047 3.50158 91.8046C3.63218 92.0197 3.77047 92.2272 3.90876 92.4423C3.97022 92.5345 4.03168 92.6267 4.09314 92.7188C4.28521 92.9954 4.49264 93.2643 4.70007 93.5332C4.76154 93.61 4.823 93.6869 4.88446 93.7637C5.06116 93.9788 5.23786 94.1862 5.42224 94.3937C5.49139 94.4705 5.56053 94.5473 5.62968 94.6242C5.86784 94.8777 6.11368 95.1312 6.37489 95.3771C6.42867 95.4308 6.49013 95.4769 6.5516 95.5307C6.76671 95.7305 6.98951 95.9225 7.21999 96.1069C7.29681 96.1684 7.37364 96.2298 7.45047 96.2913C7.73472 96.5141 8.01898 96.7215 8.31861 96.9136C8.3647 96.9443 8.4108 96.9674 8.4569 96.9981C8.71811 97.1671 8.99468 97.3208 9.27126 97.4591C9.35577 97.5051 9.44028 97.5436 9.52479 97.5897C9.84746 97.751 10.1778 97.897 10.5158 98.0199C10.5466 98.0276 10.5773 98.0429 10.608 98.0506C10.923 98.1582 11.238 98.2504 11.5684 98.3349C11.6606 98.3579 11.7528 98.381 11.8449 98.3963C12.206 98.4732 12.5671 98.5346 12.9436 98.5654H67.7824C74.4971 97.9815 78.953 90.1605 79.5983 85.8736C80.9044 77.2306 80.6125 68.0729 79.5983 50.8945H79.583Z" fill="#1B181C"></path><path d="M40.7161 73.1816C37.6661 73.1816 34.8696 72.0676 32.7108 70.2314H21.4326C24.9205 77.361 32.2421 82.2702 40.7161 82.2702C49.1901 82.2702 56.504 77.361 59.9996 70.2314H48.7291C46.5703 72.0676 43.7738 73.1816 40.7238 73.1816H40.7161Z" fill="#4CC2F1"></path><path d="M40.7165 39.355C28.8698 39.355 19.2588 48.966 19.2588 60.8126C19.2588 63.3172 19.6967 65.7219 20.488 67.9575H30.6368C29.2002 65.937 28.3474 63.4708 28.3474 60.8126C28.3474 53.9828 33.8866 48.4436 40.7165 48.4436C47.5463 48.4436 53.0855 53.9828 53.0855 60.8126C53.0855 63.4785 52.2328 65.937 50.7961 67.9575H60.9449C61.7362 65.7219 62.1664 63.3172 62.1664 60.8126C62.1664 48.9583 52.5631 39.355 40.7088 39.355H40.7165Z" fill="#4CC2F1"></path><path d="M80.8045 30.2435C78.469 29.0757 76.4484 27.0706 74.497 25.1192C73.191 23.8208 71.9618 22.5916 70.625 21.5928C66.4226 18.4429 62.2509 17.7438 60.1765 17.7438L19.6582 17.667L20.5648 22.7299H60.1151C60.1151 22.7299 60.2918 22.776 60.3993 22.7836C60.6836 22.7913 64.379 23.2446 67.5826 25.6416C68.6352 26.4329 69.7415 27.5315 70.9169 28.707C73.0527 30.8274 75.4727 33.2321 78.5304 34.7686C78.8915 34.953 79.2833 35.0375 79.6598 35.0375C80.5894 35.0375 81.4806 34.5227 81.9262 33.6392C82.5485 32.387 82.0414 30.8658 80.7968 30.2435H80.8045Z" fill="#53C2ED"></path></g><defs><clipPath id="clip0_43956_103992"><rect width="81.9202" height="98" fill="white" transform="translate(0.290039 0.56543)"></rect></clipPath></defs></svg>