<svg xmlns="http://www.w3.org/2000/svg" width="106" height="78" viewBox="0 0 106 78" fill="none"><path d="M3.83897 69.6849L102.905 33.6267L104.773 38.7605C105.488 40.723 104.474 42.8907 102.511 43.6059L10.5528 77.0751C8.59572 77.7903 6.42247 76.7812 5.71284 74.8187L3.84451 69.6849H3.83897Z" fill="#FFB8D6"></path><path d="M100.504 28.8367L1.44396 64.8894C1.44396 64.8894 -4.70435 48.0023 28.6595 34.5858C62.0178 21.1693 55.875 4.28228 55.875 4.28228L90.2589 0.695312L100.504 28.8367Z" fill="white"></path><path d="M86.5832 18.608C87.9415 22.3391 86.0178 26.4583 82.2866 27.8221C78.5555 29.1749 74.4308 27.2566 73.078 23.5255C71.7198 19.7944 73.6435 15.6697 77.3691 14.3114C81.1058 12.9531 85.225 14.8769 86.5832 18.608Z" fill="#FFB8D6"></path><path d="M27.7645 29.5651L24.6849 33.2339L35.6956 42.4763L38.7752 38.8074L27.7645 29.5651Z" fill="#FFB8D6"></path><path d="M33.8542 27.6281L36.9367 23.958L47.9471 33.1998L44.8702 36.8699L33.8542 27.6281Z" fill="#FFB8D6"></path><path d="M45.0387 18.4264L41.9604 22.0963L52.9743 31.3349L56.0527 27.6649L45.0387 18.4264Z" fill="#FFB8D6"></path></svg>