<svg xmlns="http://www.w3.org/2000/svg" width="100" height="100" viewBox="0 0 100 100" fill="none"><path d="M23.1516 75.2269C20.0335 83.8502 20.2156 89.1704 20.2156 89.1704H79.2841C79.2841 89.1704 79.469 83.8502 76.3481 75.2269C74.0329 68.8223 70.5008 65.8449 68.8396 61.4187H30.6601C28.9961 65.8449 25.4668 68.8223 23.1516 75.2269Z" fill="#8797E3"></path><path d="M84.0552 26.0648C81.1191 16.5255 74.8828 15.6093 74.8828 15.6093L74.7007 15.5155C74.7007 15.5762 74.7007 15.6093 74.7007 15.6093C74.7007 15.6093 75.4347 30.284 62.2253 30.284C49.0158 30.284 49.7499 21.6635 49.7499 21.6635C49.7499 21.6635 59.8384 18.9124 59.8384 12.4911C59.8384 6.06993 53.602 6.62182 49.7499 6.62182H49.5677C45.7156 6.62182 39.4792 6.07269 39.4792 12.4911C39.4792 18.9096 49.5677 21.6635 49.5677 21.6635C49.5677 21.6635 50.3017 30.284 37.0951 30.284C23.8884 30.284 24.6196 15.6093 24.6196 15.6093C24.6196 15.6093 18.3833 16.5255 15.4473 26.0648C12.5112 35.6042 0.220703 64.2196 0.220703 69.3577V74.493H2.23785V74.5399H13.4274L27.0038 45.5078C27.0038 45.5078 28.3835 47.2904 29.021 48.259C29.8322 49.4925 30.8091 52.6493 31.4824 54.8789H68.0173C68.6934 52.6493 69.524 49.7877 70.4787 48.259C71.0913 47.2739 72.4959 45.5078 72.4959 45.5078L86.0723 74.5399H87.7225V81.4633H97.2618V74.493H99.279V69.3577C99.279 64.2196 86.9885 35.6042 84.0524 26.0648H84.0552Z" fill="#8797E3"></path><path d="M84.7892 94.5818C84.7892 97.5703 82.2616 99.9931 79.1462 99.9931H19.9893C16.8739 99.9931 14.3463 97.5703 14.3463 94.5818C14.3463 91.5933 16.8712 89.1706 19.9893 89.1706H79.1462C82.2616 89.1706 84.7892 91.5933 84.7892 94.5818Z" fill="white"></path><path d="M74.7007 15.6093C74.7007 15.6093 74.7007 15.5734 74.7007 15.5155C74.6952 14.7925 74.422 9.89745 68.4616 5.70587C63.5084 2.21518 58.3731 -0.168975 49.7499 0.0159075H49.5677C40.9472 -0.166215 35.8092 2.21794 30.856 5.70311C24.4017 10.2424 24.6196 15.6093 24.6196 15.6093C24.6196 15.6093 23.8856 30.284 37.0951 30.284C50.3045 30.284 49.5677 21.6635 49.5677 21.6635C49.5677 21.6635 39.4792 18.9124 39.4792 12.4911C39.4792 6.06994 45.7156 6.62182 49.5677 6.62182H49.7499C53.602 6.62182 59.8384 6.0727 59.8384 12.4911C59.8384 18.9096 49.7499 21.6635 49.7499 21.6635C49.7499 21.6635 49.0158 30.284 62.2253 30.284C75.4347 30.284 74.7007 15.6093 74.7007 15.6093Z" fill="white"></path><path d="M11.7772 74.54L2.23785 74.5399L2.23785 81.4635H11.7772V74.54Z" fill="white"></path><path d="M97.3005 74.54H87.7611V81.4635H97.3005V74.54Z" fill="white"></path></svg>