<svg class="mx-auto" xmlns="http://www.w3.org/2000/svg" width="97" height="102" viewBox="0 0 97 102" fill="none"><path d="M36.6309 51.2526C37.6665 51.841 38.8356 52.148 40.0237 52.148C41.2118 52.148 42.3809 51.841 43.4165 51.2526C45.0239 50.3828 46.8093 49.916 48.6264 49.8968C50.4498 49.8776 52.2479 50.2997 53.868 51.1375C52.6355 48.4642 50.6786 46.2067 48.2197 44.6206C45.7673 43.0345 42.9146 42.1968 40.0046 42.1968C37.0947 42.1968 34.242 43.0409 31.7895 44.6206C29.3307 46.2067 27.3738 48.4642 26.1349 51.1375C27.7614 50.2997 29.5721 49.8712 31.3956 49.8904C33.2254 49.9096 35.0171 50.3764 36.6309 51.2526Z" fill="white"></path><path d="M62.4008 66.5312C64.3831 61.3829 64.5801 55.7102 62.9663 50.434C61.3525 45.1578 58.0169 40.5915 53.5122 37.4834C49.0012 34.3752 43.5944 32.917 38.1558 33.3327C32.7235 33.7548 27.5898 36.0316 23.6062 39.7921C19.6162 43.5526 17.0049 48.5793 16.198 54.041C15.3911 59.5027 16.4394 65.0858 19.1651 69.8632C21.8907 74.6469 26.1412 78.3499 31.2177 80.3644C36.2942 82.379 41.8853 82.59 47.0952 80.9592C46.6187 79.533 46.4535 78.0173 46.6123 76.5208C42.311 78.1004 37.603 78.1132 33.3017 76.5592C28.994 75.0051 25.3534 71.9737 23.009 67.9957C20.6645 64.0178 19.756 59.3364 20.4485 54.7509C21.1347 50.1654 23.3775 45.97 26.7893 42.8811C30.1948 39.7857 34.5597 38.0014 39.1342 37.8159C43.7024 37.6304 48.1943 39.0694 51.8286 41.877C55.4691 44.6846 58.0296 48.6881 59.0716 53.2032C60.1136 57.7183 59.5799 62.4573 57.5531 66.6143L62.4072 66.5248L62.4008 66.5312Z" fill="white"></path><path d="M49.3189 84.8923C43.264 87.022 36.6754 87.0156 30.6268 84.8732C24.5783 82.7307 19.4192 78.5737 15.9883 73.0865C12.5574 67.5992 11.058 61.0951 11.7314 54.6358C12.4049 48.17 15.2068 42.1328 19.6924 37.4897C24.178 32.8467 30.0741 29.8792 36.434 29.0606C42.7938 28.2484 49.2363 29.6298 54.7194 32.9938C60.2025 36.3578 64.4022 41.4997 66.645 47.5881C68.8878 53.6765 69.0276 60.3532 67.058 66.5376H79.3711V22.1792H0.631836V88.7104C0.631836 90.4755 1.32437 92.1639 2.5506 93.4174C3.78319 94.6645 5.45416 95.368 7.18868 95.368H46.5551C46.5551 93.6476 46.949 91.9464 47.7115 90.4052C48.4739 88.8639 49.5731 87.5272 50.9327 86.4912C50.3355 86.0179 49.7954 85.4871 49.3126 84.8923H49.3189Z" fill="white"></path><path d="M57.4959 93.1424H94.6767C95.2549 93.1424 95.814 92.9121 96.227 92.4901C96.6336 92.0744 96.8687 91.5116 96.8687 90.9232C96.8687 90.3348 96.64 89.772 96.227 89.3499C95.814 88.9342 95.2613 88.6976 94.6767 88.6976C53.5377 88.6976 57.4959 88.6976 56.2951 88.6976C54.891 88.9726 53.6202 89.7081 52.6609 90.7825C51.5172 92.0168 50.9009 93.6604 50.9327 95.3488C50.9327 97.1139 51.6252 98.8023 52.8515 100.049C54.0841 101.297 55.755 102 57.4895 102H94.6704C95.2486 102 95.8077 101.77 96.2206 101.348C96.6273 100.932 96.8624 100.369 96.8624 99.7808C96.8624 99.1924 96.6336 98.6296 96.2206 98.2075C95.8077 97.7918 95.2549 97.5552 94.6704 97.5552H57.4895C56.9114 97.5552 56.3523 97.325 55.9456 96.9029C55.5327 96.4872 55.3039 95.9244 55.3039 95.336C55.3039 94.7476 55.5327 94.1848 55.9456 93.7627C56.3523 93.347 56.9114 93.1104 57.4895 93.1104L57.4959 93.1424Z" fill="white"></path><path d="M70.6223 11.0896H48.7534C48.1689 11.0896 47.6162 10.853 47.2032 10.4373C46.7902 10.0216 46.5615 9.45238 46.5615 8.864C46.5615 8.27563 46.7902 7.71283 47.2032 7.29713C47.6098 6.88143 48.1689 6.6512 48.7534 6.6512H70.6223C71.2068 6.6512 71.7596 6.88143 72.1725 7.29713C72.5855 7.71283 72.8143 8.27563 72.8143 8.864C72.8143 9.45238 72.5855 10.0152 72.1725 10.4373C71.7659 10.853 71.2068 11.0896 70.6223 11.0896ZM24.6926 8.8704C24.6926 8.28202 24.9214 7.71923 25.3343 7.30353C25.7473 6.88783 26.3001 6.6576 26.8783 6.6576C27.4564 6.6576 28.0155 6.88783 28.4222 7.30353C28.8351 7.71923 29.0639 8.28202 29.0639 8.8704C29.0639 9.45877 28.8351 10.0216 28.4222 10.4437C28.0155 10.8594 27.4564 11.096 26.8783 11.096C26.3001 11.096 25.741 10.8594 25.3343 10.4437C24.9214 10.028 24.6926 9.45877 24.6926 8.8704ZM19.7305 10.4437C19.5272 10.6547 19.2858 10.821 19.0189 10.9361C18.7521 11.0512 18.4598 11.1088 18.1739 11.1152C17.8817 11.1152 17.5958 11.0576 17.3289 10.9489C17.0621 10.8402 16.8143 10.6739 16.6046 10.4692C16.4013 10.2582 16.2361 10.0152 16.1217 9.74657C16.0074 9.47796 15.9502 9.18377 15.9438 8.88959C15.9438 8.29482 16.1662 7.71923 16.5792 7.29713C16.9922 6.88143 17.5513 6.64481 18.1294 6.64481C18.7076 6.64481 19.2667 6.87504 19.6797 7.29713C20.0927 7.71283 20.3214 8.28202 20.3214 8.8704C20.3214 9.45877 20.0927 10.028 19.6797 10.4437H19.7305ZM11.5726 9.29249C11.5027 9.63145 11.3629 9.95122 11.1533 10.2198C10.9436 10.4948 10.6768 10.7123 10.3654 10.8594C10.0541 11.0065 9.71738 11.0832 9.38064 11.0704C9.03755 11.064 8.70717 10.9745 8.4022 10.8146C8.09723 10.6483 7.84309 10.4181 7.64613 10.1367C7.44917 9.84889 7.3221 9.52912 7.27127 9.18377C7.22044 8.83842 7.25221 8.49307 7.35387 8.16051C7.46188 7.83435 7.63978 7.53376 7.88121 7.29074C8.21159 6.95178 8.64363 6.73434 9.10744 6.66399C9.57125 6.59364 10.0478 6.67678 10.4607 6.90062C10.8737 7.12446 11.2105 7.4826 11.4074 7.91109C11.6107 8.33958 11.6679 8.82563 11.579 9.29249H11.5726ZM79.3711 6.6576C79.3711 4.89247 78.6786 3.19769 77.4523 1.95059C76.2197 0.703492 74.5488 0 72.8143 0H7.19503C5.45416 0 3.78954 0.703492 2.55695 1.95059C1.32437 3.19769 0.631836 4.89247 0.631836 6.6576V17.7408H79.3711V6.6576Z" fill="white"></path><path d="M94.6767 79.8336H57.4959C56.9177 79.8336 56.3586 79.6033 55.952 79.1813C55.539 78.7656 55.3103 78.2028 55.3103 77.6144C55.3103 77.026 55.539 76.4632 55.952 76.0475C56.3586 75.6318 56.9177 75.3952 57.4959 75.3952H94.6767C95.2549 75.3952 95.814 75.165 96.227 74.7493C96.6336 74.3336 96.8624 73.7708 96.8624 73.1824C96.8624 72.594 96.6336 72.0312 96.227 71.6155C95.814 71.1998 95.2549 70.9696 94.6767 70.9696H57.4959C56.1871 70.9888 54.91 71.4045 53.8299 72.1655C52.7562 72.9266 51.9302 73.9946 51.46 75.2353C50.9899 76.476 50.8946 77.8318 51.1932 79.1301C51.4918 80.4284 52.1653 81.5987 53.1247 82.5005C55.5517 84.9627 54.9418 84.272 94.6767 84.272C95.2549 84.272 95.814 84.0418 96.227 83.6197C96.6336 83.204 96.8624 82.6412 96.8624 82.0528C96.8624 81.4644 96.6336 80.9016 96.227 80.4795C95.814 80.0638 95.2549 79.8272 94.6767 79.8272V79.8336Z" fill="white"></path></svg>