<svg class="mx-auto my-3 xs:mt-4 mb-7  md:w-[176px] h-[28px] md:h-[35px] lg:h-[40px] lg:w-[236px] w-[164px]" xmlns="http://www.w3.org/2000/svg" width="237" height="41" viewBox="0 0 237 41" fill="none"><path d="M76.3186 19.5624C77.3749 19.1398 78.3256 18.4002 78.9594 17.4494C79.5932 16.4985 79.9101 15.3363 79.9101 14.1741C79.9101 9.31398 76.5298 6.88394 71.8819 6.88394H59.7338V33.1918H72.9382C77.058 33.1918 80.9665 30.3392 80.9665 25.9017C80.9665 20.7246 76.3186 19.6681 76.3186 19.5624ZM66.072 12.4836H70.8255C71.4593 12.4836 71.9875 12.6949 72.5157 13.1175C72.9382 13.5402 73.2551 14.0684 73.2551 14.7023V15.0193C73.2551 15.6532 72.9382 16.2872 72.5157 16.7098C72.0931 17.1324 71.4593 17.4494 70.8255 17.4494H66.072V12.4836ZM70.8255 27.8035H66.072V22.6264H70.7199C73.0439 22.6264 74.1002 23.683 74.1002 25.1621C74.1002 27.0639 72.727 27.8035 70.8255 27.8035Z" fill="#EC0007"></path><path d="M95.016 6.35566C87.5159 6.35566 83.0792 12.4836 83.0792 20.0907C83.0792 27.6978 87.5159 33.8258 95.016 33.8258C102.516 33.8258 106.953 27.8035 106.953 20.0907C106.847 12.378 102.516 6.35566 95.016 6.35566ZM95.016 27.5922C91.3187 27.5922 89.5229 24.2112 89.5229 20.0907C89.5229 15.9702 91.3187 12.6949 95.016 12.6949C98.7132 12.6949 100.509 16.0759 100.509 20.0907C100.509 24.1056 98.6075 27.5922 95.016 27.5922Z" fill="#EC0007"></path><path d="M120.685 17.3437L119.84 17.1324C117.622 16.7098 115.932 16.0759 115.932 14.491C115.932 12.8006 117.622 12.061 119.101 12.061C120.051 12.061 121.108 12.2723 121.953 12.6949C122.904 13.1175 123.643 13.7515 124.382 14.491L128.397 10.4762C127.235 9.10267 125.756 8.04613 124.171 7.30655C122.587 6.56697 120.791 6.25001 118.995 6.35566C113.502 6.35566 109.382 9.41964 109.382 14.5967C109.382 19.3511 112.763 21.6755 116.777 22.5208L117.622 22.7321C121.002 23.4717 122.27 23.9999 122.27 25.5847C122.27 27.2752 120.897 28.2261 118.784 28.2261C117.516 28.2261 116.249 27.9091 115.087 27.2752C113.925 26.6413 112.974 25.796 112.234 24.7395L108.115 28.86C110.439 31.607 113.291 33.8258 118.889 33.8258C123.749 33.8258 128.925 30.9731 128.925 25.2678C128.925 19.2455 124.382 18.0833 120.685 17.3437Z" fill="#EC0007"></path><path d="M143.291 27.5922C140.439 27.5922 137.481 25.1621 137.481 19.9851C137.481 15.3363 140.228 12.6949 143.186 12.6949C145.51 12.6949 146.777 13.7515 147.833 15.6532L153.01 12.1666C150.474 8.15179 147.305 6.46132 142.974 6.46132C135.157 6.46132 130.932 12.5893 130.932 20.0907C130.932 27.5922 135.58 34.0371 142.869 34.0371C148.045 34.0371 150.474 32.241 153.115 28.3317L147.833 24.7395C146.883 26.3243 145.721 27.5922 143.291 27.5922Z" fill="#EC0007"></path><path d="M170.439 6.98959V16.7098H162.622V6.98959H155.756V33.2975H162.622V22.9434H170.439V33.2975H177.2V6.98959H170.439Z" fill="#EC0007"></path><path d="M34.1702 6.14436C30.6842 2.3408 25.7194 0.333374 20.4376 0.333374C16.5291 0.333374 12.7263 1.49557 9.5572 3.71431C6.28251 5.93305 3.85291 8.99702 2.26838 12.6949C0.789491 16.2872 0.366951 20.302 1.1064 24.2112C1.84584 28.1204 3.74727 31.607 6.49378 34.4597C9.24029 37.2067 12.7262 39.1085 16.5291 39.9537C20.332 40.6933 24.2405 40.3763 27.8321 38.7915C31.4237 37.3124 34.4871 34.671 36.5998 31.3957C38.7125 28.1204 39.8745 24.2112 39.8745 20.302C39.8745 15.0193 37.7618 9.94791 34.1702 6.14436ZM32.9025 32.8749C29.7335 36.3615 25.1912 38.3689 20.4376 38.2632C16.9517 38.2632 13.4657 37.2067 10.5079 35.1993C7.55013 33.1918 5.3318 30.3392 3.95854 27.0639C2.58529 23.7886 2.26838 20.0907 2.90219 16.6041C3.64164 13.1175 5.3318 9.84225 7.7614 7.30655C10.2966 4.77085 13.4657 3.08038 16.846 2.3408C20.332 1.60122 23.9236 2.02384 27.0926 3.39735C30.3673 4.77085 33.1138 7.09524 35.1209 10.0536C37.0223 13.0119 38.0787 16.4985 38.0787 20.0907C38.0787 24.8452 36.1772 29.4939 32.9025 32.8749Z" fill="#1A171B"></path><path d="M33.4307 13.2232C32.2687 11.0045 30.5786 9.10267 28.5715 7.83482H27.1983V14.7023H13.677V7.83482H12.3037C10.2966 9.20833 8.60648 11.0045 7.4445 13.2232C6.28251 15.4419 5.6487 17.872 5.6487 20.302C5.6487 22.7321 6.28251 25.1621 7.4445 27.3809C8.60648 29.5996 10.2966 31.3957 12.3037 32.7692H13.677V26.0074H27.1983V32.7692H28.5715C30.5786 31.3957 32.2687 29.5996 33.4307 27.3809C34.5927 25.1621 35.2265 22.7321 35.2265 20.302C35.2265 17.872 34.5927 15.4419 33.4307 13.2232ZM7.55013 21.0416C7.33886 17.555 8.50085 14.1741 10.7192 11.6384C11.0361 11.2158 11.4586 10.8988 11.7755 10.5818V29.9166C9.30368 27.6027 7.7614 24.4754 7.55013 21.0416ZM27.1983 23.9999H13.677V16.4985H27.1983V23.9999ZM30.0504 28.9657C29.7335 29.2826 29.4166 29.5996 29.0997 30.0222V10.4762C31.6349 12.8006 33.2195 16.0759 33.3251 19.5624C33.5364 23.049 32.3744 26.43 30.0504 28.9657Z" fill="#1A171B"></path><path d="M235.616 16.0759H197.376V24.5282H235.616V16.0759Z" fill="#D70027"></path><path d="M197.376 24.5282H235.616V28.5959C235.616 31.0788 233.609 33.0862 231.127 33.0862H201.866C199.383 33.0862 197.376 31.0788 197.376 28.5959V24.5282Z" fill="#FFD944"></path><path d="M201.866 7.51786H231.127C233.609 7.51786 235.616 9.52529 235.616 12.0082V16.0759H197.376V12.0082C197.376 9.52529 199.383 7.51786 201.866 7.51786Z" fill="black"></path><path d="M230.863 33.6145H202.13C199.162 33.6145 196.742 31.195 196.742 28.2261V12.2723C196.742 9.30342 199.162 6.88394 202.13 6.88394H230.863C233.831 6.88394 236.25 9.30342 236.25 12.2723V28.2261C236.25 31.195 233.831 33.6145 230.863 33.6145ZM202.13 8.15179C199.859 8.15179 198.01 10.0007 198.01 12.2723V28.2261C198.01 30.4977 199.859 32.3466 202.13 32.3466H230.863C233.134 32.3466 234.982 30.4977 234.982 28.2261V12.2723C234.982 10.0007 233.134 8.15179 230.863 8.15179H202.13Z" fill="#6E7191"></path></svg>